<svg id="Layer_1" data-name="Layer 1" xmlns="http://www.w3.org/2000/svg" viewBox="0 0 1024 1024"><defs><style>.cls-1{fill:#231f20;}.cls-2{fill:none;stroke:#fff;stroke-miterlimit:10;stroke-width:20px;}.cls-3{fill:#f7901e;}.cls-4{fill:#939598;}</style></defs><path class="cls-1" d="M940.19,512c0-84.2,40.92-180.17,1.58-248.15C901.19,193.7,796.24,181.67,726.1,141.09,658.11,101.75,596.2,15.81,512,15.81S365.89,101.75,297.9,141.09C227.76,181.67,122.81,193.7,82.23,263.85c-39.34,68,1.58,164,1.58,248.15S42.89,692.17,82.23,760.15c40.58,70.15,145.53,82.18,215.67,122.76,68,39.34,129.9,125.28,214.1,125.28s146.11-85.94,214.1-125.28c70.14-40.58,175.09-52.61,215.67-122.76C981.11,692.16,940.19,596.2,940.19,512Z"/><path class="cls-2" d="M940.19,512c0-84.2,40.92-180.17,1.58-248.15C901.19,193.7,796.24,181.67,726.1,141.09,658.11,101.75,596.2,15.81,512,15.81S365.89,101.75,297.9,141.09C227.76,181.67,122.81,193.7,82.23,263.85c-39.34,68,1.58,164,1.58,248.15S42.89,692.17,82.23,760.15c40.58,70.15,145.53,82.18,215.67,122.76,68,39.34,129.9,125.28,214.1,125.28s146.11-85.94,214.1-125.28c70.14-40.58,175.09-52.61,215.67-122.76C981.11,692.16,940.19,596.2,940.19,512Z"/><circle class="cls-3" cx="512" cy="141.63" r="29.85"/><circle class="cls-4" cx="512" cy="512" r="268.9"/></svg>